<svg width="164" height="54" viewBox="0 0 164 54" fill="none" xmlns="http://www.w3.org/2000/svg">
<g clip-path="url(#clip0_2_150)">
<path d="M68.3878 19.4539H62.0376V33.9556H65.8212V29.9564H68.3878C71.6167 29.9564 73.8108 27.8653 73.8108 24.6946C73.8108 21.545 71.6788 19.4539 68.3878 19.4539ZM68.0153 26.6854H65.8212V22.7456H68.0153C69.2365 22.7456 69.965 23.4505 69.965 24.6946C69.965 25.9387 69.2365 26.6854 68.0153 26.6854Z" fill="white"/>
<path d="M81.7588 19.3088H80.1029L73.2974 33.7484V33.9556H77.3708L78.178 32.1115H83.6424L84.4703 33.9556H88.5478V33.7484L81.7588 19.3088ZM80.9309 25.2972L82.2349 28.8405H79.5648L80.9309 25.2972Z" fill="white"/>
<path d="M98.7731 26.8288C100.491 25.3581 101.174 22.8305 101.174 19.4539H97.3863C97.3863 22.9963 96.6412 24.8608 94.0539 24.8608H93.6813V19.4539H89.8936V33.9556H93.6813V28.2171H94.2402C94.6335 28.2171 95.006 28.1964 95.3786 28.155L98.0487 33.9556H102.188V33.7484L98.7731 26.8288Z" fill="white"/>
<path d="M107.88 30.5603V28.2988H112.744V24.9863H107.88V22.8285H113.158V19.4539H104.117V33.9556H113.344V30.5603H107.88Z" fill="white"/>
<path d="M125.536 19.4539H114.752V22.8492H118.25V33.9556H122.038V22.8492H125.536V19.4539Z" fill="white"/>
<path d="M131.23 19.4539H127.444V33.956H131.23V19.4539Z" fill="white"/>
<path d="M148.159 26.8288C149.877 25.3581 150.56 22.8305 150.56 19.4539H146.772C146.772 22.9963 146.027 24.8608 143.44 24.8608H143.067V19.4539H139.279V33.9556H143.067V28.2171H143.626C144.019 28.2171 144.392 28.1964 144.764 28.155L147.434 33.9556H151.574V33.7484L148.159 26.8288Z" fill="white"/>
<path d="M158.053 30.5603L158.881 29.1504L163.724 20.613V19.4539H152.92V22.8492H158.177L157.163 24.5491L152.448 32.755V33.9556H163.89V30.5603H158.053Z" fill="white"/>
<path fill-rule="evenodd" clip-rule="evenodd" d="M32.5453 14.1937C32.3595 14.0077 32.1077 13.9032 31.8458 13.9036C31.5826 13.903 31.331 14.0074 31.1454 14.1932L31.1451 14.1934C30.9596 14.3792 30.8551 14.6312 30.8559 14.8946C30.8554 15.1569 30.9597 15.409 31.1455 15.595C32.6822 17.1333 36.3348 20.79 37.8704 22.3272C38.0562 22.5132 38.308 22.6176 38.5712 22.6183C38.8331 22.6179 39.0849 22.5134 39.2704 22.3276L39.2707 22.3273C39.4563 22.1415 39.5606 21.8897 39.5611 21.6273C39.5603 21.364 39.456 21.1119 39.2702 20.9259C37.7346 19.3887 34.082 15.732 32.5453 14.1937Z" fill="#1873CD"/>
<path fill-rule="evenodd" clip-rule="evenodd" d="M37.5504 38.949L39.651 41.0514L26.8859 53.8309L18.5359 45.4711L20.6365 43.3686L26.8859 49.6245L37.5504 38.949ZM14.0731 41.0032L16.1738 38.9007L4.20151 26.915L26.8859 4.20689L49.5703 26.915L42.0131 34.4812L44.1138 36.5836L53.7716 26.915L26.8859 0.000488281L0 26.915L14.0731 41.0032Z" fill="white"/>
<path fill-rule="evenodd" clip-rule="evenodd" d="M26.8804 49.6195L37.5598 38.9285L39.6672 41.0387L26.8516 53.868L24.7442 51.7593L24.7729 51.7297L18.5288 45.4785L20.6362 43.3699L26.8804 49.6195Z" fill="#FF0000"/>
</g>
<defs>
<clipPath id="clip0_2_150">
<rect width="164" height="54" fill="white"/>
</clipPath>
</defs>
</svg>
