<?xml version="1.0" encoding="UTF-8" standalone="no"?>
<!DOCTYPE svg PUBLIC "-//W3C//DTD SVG 1.1//EN" "http://www.w3.org/Graphics/SVG/1.1/DTD/svg11.dtd">
<svg width="100%" height="100%" viewBox="0 0 164 54" version="1.1" xmlns="http://www.w3.org/2000/svg" xmlns:xlink="http://www.w3.org/1999/xlink" xml:space="preserve" xmlns:serif="http://www.serif.com/" style="fill-rule:evenodd;clip-rule:evenodd;stroke-linejoin:round;stroke-miterlimit:2;">
    <g transform="matrix(1,0,0,1,0,-0.000488281)">
        <path d="M68.388,19.454L62.038,19.454L62.038,33.956L65.821,33.956L65.821,29.956L68.388,29.956C71.617,29.956 73.811,27.865 73.811,24.695C73.811,21.545 71.679,19.454 68.388,19.454ZM68.015,26.685L65.821,26.685L65.821,22.746L68.015,22.746C69.237,22.746 69.965,23.451 69.965,24.695C69.965,25.939 69.237,26.685 68.015,26.685Z" style="fill:rgb(24,115,205);fill-rule:nonzero;"/>
        <path d="M81.759,19.309L80.103,19.309L73.297,33.748L73.297,33.956L77.371,33.956L78.178,32.112L83.642,32.112L84.47,33.956L88.548,33.956L88.548,33.748L81.759,19.309ZM80.931,25.297L82.235,28.84L79.565,28.84L80.931,25.297Z" style="fill:rgb(24,115,205);fill-rule:nonzero;"/>
        <path d="M98.773,26.829C100.491,25.358 101.174,22.831 101.174,19.454L97.386,19.454C97.386,22.996 96.641,24.861 94.054,24.861L93.681,24.861L93.681,19.454L89.894,19.454L89.894,33.956L93.681,33.956L93.681,28.217L94.24,28.217C94.634,28.217 95.006,28.196 95.379,28.155L98.049,33.956L102.188,33.956L102.188,33.748L98.773,26.829Z" style="fill:rgb(24,115,205);fill-rule:nonzero;"/>
        <path d="M107.88,30.56L107.88,28.299L112.744,28.299L112.744,24.986L107.88,24.986L107.88,22.828L113.158,22.828L113.158,19.454L104.117,19.454L104.117,33.956L113.344,33.956L113.344,30.56L107.88,30.56Z" style="fill:rgb(24,115,205);fill-rule:nonzero;"/>
        <path d="M125.536,19.454L114.752,19.454L114.752,22.849L118.25,22.849L118.25,33.956L122.038,33.956L122.038,22.849L125.536,22.849L125.536,19.454Z" style="fill:rgb(24,115,205);fill-rule:nonzero;"/>
        <rect x="127.444" y="19.454" width="3.786" height="14.502" style="fill:rgb(24,115,205);fill-rule:nonzero;"/>
        <path d="M148.159,26.829C149.877,25.358 150.56,22.831 150.56,19.454L146.772,19.454C146.772,22.996 146.027,24.861 143.44,24.861L143.067,24.861L143.067,19.454L139.279,19.454L139.279,33.956L143.067,33.956L143.067,28.217L143.626,28.217C144.019,28.217 144.392,28.196 144.764,28.155L147.434,33.956L151.574,33.956L151.574,33.748L148.159,26.829Z" style="fill:rgb(24,115,205);fill-rule:nonzero;"/>
        <path d="M158.053,30.56L158.881,29.15L163.724,20.613L163.724,19.454L152.92,19.454L152.92,22.849L158.177,22.849L157.163,24.549L152.448,32.755L152.448,33.956L163.89,33.956L163.89,30.56L158.053,30.56Z" style="fill:rgb(24,115,205);fill-rule:nonzero;"/>
        <path d="M32.545,14.194C32.359,14.008 32.108,13.903 31.846,13.904C31.583,13.903 31.331,14.007 31.145,14.193L31.145,14.193C30.96,14.379 30.855,14.631 30.856,14.895C30.855,15.157 30.96,15.409 31.145,15.595C32.682,17.133 36.335,20.79 37.87,22.327C38.056,22.513 38.308,22.618 38.571,22.618C38.833,22.618 39.085,22.513 39.27,22.328L39.271,22.327C39.456,22.142 39.561,21.89 39.561,21.627C39.56,21.364 39.456,21.112 39.27,20.926C37.735,19.389 34.082,15.732 32.545,14.194Z" style="fill:rgb(24,115,205);"/>
        <path d="M37.55,38.949L39.651,41.051L26.886,53.831L18.536,45.471L20.637,43.369L26.886,49.625L37.55,38.949ZM14.073,41.003L16.174,38.901L4.202,26.915L26.886,4.207L49.57,26.915L42.013,34.481L44.114,36.584L53.772,26.915L26.886,0L0,26.915L14.073,41.003Z" style="fill:rgb(24,115,205);"/>
        <path d="M26.88,49.62L37.56,38.929L39.667,41.039L26.852,53.868L24.744,51.759L24.773,51.73L18.529,45.478L20.636,43.37L26.88,49.62Z" style="fill:rgb(255,0,0);"/>
    </g>
</svg>
